/* XPM */
static char * active_xpm[] = {
"22 22 4 1",
" 	c None",
".	c #C5C8BF",
"+	c #FFFFFF",
"@	c #C4C7BE",
"                      ",
"        ...           ",
"        .+.           ",
"        .+.......     ",
"        .+++++++.     ",
"        .......+.     ",
"              .+.     ",
" ..............+..... ",
" .++++++++++++++++++. ",
" .+@@@@@@@@@@@@@@@@+. ",
" .+@++@++@++@++@++@+. ",
" .+@++@++@++@++@++@+. ",
" .+@@@@@@@@@@@@@++@+. ",
" .+@++@++@++@++@++@+. ",
" .+@++@++@++@++@++@+. ",
" .+@@@@@@@@@@@@@@@@+. ",
" .+@++++++++@+++++@+. ",
" .+@++++++++@+++++@+. ",
" .+@....@@@@@@@@@@@+. ",
" .++++++++++++++++++. ",
" .................... ",
"                      "};
