/* XPM */
static char * inactive_xpm[] = {
"22 22 42 1",
" 	c None",
".	c #C5C8BF",
"+	c #7B7B7B",
"@	c #7A7A7A",
"#	c #7C7C7C",
"$	c #7E7E7F",
"%	c #808080",
"&	c #828382",
"*	c #828282",
"=	c #7F8080",
"-	c #747474",
";	c #747574",
">	c #767676",
",	c #777677",
"'	c #787877",
")	c #797979",
"!	c #7E7E7E",
"~	c #838283",
"{	c #7D7D7D",
"]	c #7A7B7A",
"^	c #787878",
"/	c #757575",
"(	c #767677",
"_	c #7B7A7B",
":	c #777777",
"<	c #838282",
"[	c #7B7B7A",
"}	c #7E7F7E",
"|	c #828283",
"1	c #767575",
"2	c #787777",
"3	c #7E7F7F",
"4	c #807F7F",
"5	c #777878",
"6	c #7F7E7E",
"7	c #7B7A7A",
"8	c #747475",
"9	c #767777",
"0	c #777877",
"a	c #7A7A79",
"b	c #7F7F80",
"c	c #7A7B7B",
"                      ",
"        ...           ",
"        .+.           ",
"        .@.......     ",
"        .+#$%&*=.     ",
"        .......%.     ",
"              .%.     ",
" ..............=..... ",
" .-;>,')@+#!%~*={]^/. ",
" .-................/. ",
" .-.>(.)@.#!.**.{_./. ",
" .-.>:.)@.#!.<*.{[./. ",
" .-.............{[./. ",
" .-.>:.)@.#}.|*.{@.1. ",
" .-.>:.)@.#!.**.{+./. ",
" .-................/. ",
" .-.>:2)@+#3.&*4{+./. ",
" .-.>,5)@+#6.**%{7./. ",
" .-................/. ",
" .-8>90)a_#6%**b{c^/. ",
" .................... ",
"                      "};
